<svg width="1012" height="506" viewBox="0 0 1012 506" fill="none" xmlns="http://www.w3.org/2000/svg">
<path d="M296.028 176.72C290.988 169.16 279.508 163.28 272.508 171.96C270.548 174.2 270.268 177.84 268.308 179.8C266.628 181.76 264.388 183.44 262.988 186.52C261.028 190.16 259.348 193.8 257.108 197.16C247.868 210.88 238.628 225.16 229.108 238.88L215.668 257.92C214.548 259.32 203.628 275.28 203.908 275.28C204.468 275.56 205.588 274.16 206.708 273.04C201.108 279.76 194.668 286.48 188.228 293.2C186.268 295.44 174.228 309.72 170.028 307.2C167.228 305.52 169.188 296 169.468 293.48C170.868 282.56 173.388 271.64 176.188 261C182.068 237.76 191.028 215.08 202.228 193.8C207.548 183.72 213.428 173.92 220.148 164.68C223.228 160.48 226.308 156.28 229.948 152.36C233.028 149.28 238.348 145.92 241.428 142.28C239.188 144.52 234.708 147.04 232.748 149C228.548 152.92 224.908 157.12 221.548 161.6C214.828 170.56 208.668 179.8 203.348 189.6C211.748 173.64 221.828 157.68 235.268 145.64C240.028 141.16 245.628 137.24 251.788 135C256.268 133.32 259.628 132.76 262.428 133.88C264.108 135 265.788 137.24 266.908 140.6C266.348 140.04 265.508 139.2 264.668 137.8C265.508 139.48 266.068 141.44 266.628 143.12C266.908 144.24 269.428 153.2 269.988 152.92C270.548 152.64 269.708 149.84 269.708 149.56C271.388 156 273.628 158.52 280.628 154.04C283.708 152.08 288.468 148.16 288.468 144.24C288.748 139.48 282.587 135 279.508 132.2C271.668 125.48 261.028 118.2 250.668 115.96C245.068 114.84 238.908 113.72 233.308 115.68C222.388 119.6 213.708 128.84 206.708 137.52C198.588 147.6 190.748 157.96 184.308 169.16L175.908 185.68C173.948 189.6 168.908 195.48 168.628 199.96C168.628 199.96 169.748 198.56 170.588 197.44C168.348 201.92 166.108 206.4 164.428 210.88C164.148 210.6 165.548 206.96 165.548 206.96C163.588 206.68 156.028 225.72 155.188 227.4C151.268 236.64 147.908 246.16 146.228 256.24C144.268 266.04 141.468 275.56 141.188 285.64C141.188 290.4 141.468 295.44 142.868 300.2C143.148 302.16 143.708 304.4 144.828 306.36C145.108 306.36 147.348 311.12 146.508 308.32L149.868 314.2C149.868 314.2 147.348 311.68 147.068 310.84C147.348 312.24 150.708 315.6 150.708 315.6C155.188 322.6 163.588 332.4 172.828 331.84C182.908 331.28 192.428 315.88 197.748 308.88C214.268 285.64 229.668 261 244.508 236.92L242.268 244.76C241.988 244.48 242.828 242.52 242.268 242.52C239.468 242.24 234.428 266.04 234.428 268C233.868 273.32 233.308 278.36 232.188 283.68C231.628 287.32 230.788 290.68 230.508 294.32C230.508 294.6 230.788 299.64 231.348 299.64C231.068 299.92 231.348 300.48 231.348 301.04C231.348 300.76 231.068 300.48 231.068 300.2C230.228 300.48 230.788 308.88 230.788 310C229.948 314.76 229.108 318.96 229.108 324C229.668 335.48 233.588 348.08 242.548 356.2C247.588 360.4 254.028 362.92 260.748 362.92C268.868 362.92 273.068 358.16 277.548 352.28C280.348 348.92 292.388 318.12 282.308 322.6C279.508 323.72 276.148 330.44 274.188 332.68C271.388 336.04 265.788 343.88 260.748 344.72C259.908 344.72 259.068 345.56 258.228 345C256.548 343.88 254.588 331.56 254.308 331.56C253.748 332.68 253.748 333.8 253.748 334.92C252.908 326.52 255.148 315.88 256.268 306.64C257.668 295.16 258.788 283.4 260.748 271.64C262.428 260.16 265.508 248.68 269.428 237.48C270.268 234.68 280.628 207.52 282.587 205.28C280.348 206.68 273.628 222.92 270.268 231.88C275.308 217.88 281.188 204.44 289.588 192.12C289.027 193.24 288.188 194.36 288.468 194.36C289.588 194.92 295.748 185.12 295.188 184.84C294.628 184.84 294.348 185.12 294.068 185.4C296.028 182.88 298.828 181.2 296.028 176.72ZM170.868 268.84C173.668 249.24 179.548 229.08 187.388 210.88C194.108 194.92 202.228 180.08 210.908 165.24C215.668 156.84 222.388 146.76 231.068 139.76C223.507 146.2 217.348 154.88 212.868 162.72C203.628 177.84 196.348 193.8 189.908 210.32C183.188 227.96 177.588 246.72 173.108 264.92C170.868 274.16 168.908 283.4 168.348 292.64L167.788 297.68V296.56C168.348 287.32 169.748 277.8 170.868 268.84ZM233.588 311.68C233.588 305.8 233.868 300.76 235.268 295.16C235.828 293.48 236.388 291.52 237.228 289.56C236.668 293.76 236.948 298.52 236.668 303C236.108 308.32 234.988 313.36 234.428 318.68C234.148 321.76 233.868 324.84 234.148 327.92C233.588 322.6 233.308 317.28 233.588 311.68ZM191.868 213.4L191.308 214.24L191.868 212.84V213.4ZM235.828 136.12L232.468 138.64C233.588 137.8 234.708 136.68 235.828 136.12ZM262.708 134.44L263.828 136.68C263.268 135.84 262.708 135 262.708 134.44ZM264.668 137.52L263.828 136.68C264.108 137.24 264.668 137.52 264.668 137.52ZM269.428 234.12L270.268 231.88L269.428 234.12ZM403.397 264.36C401.997 257.64 398.077 262.12 396.397 264.64C392.477 269.4 386.317 273.88 381.557 278.36C375.117 283.96 368.677 289.84 361.957 295.16C358.597 297.96 354.397 301.88 350.197 303.28C349.637 303.56 347.677 303.84 347.677 304.12L347.397 303.84C347.397 303.84 347.117 299.36 347.397 299.08C347.677 295.44 348.797 291.8 349.917 288.44C350.197 287.88 353.277 278.36 352.717 278.36L351.317 280.04C352.997 276.68 355.237 273.32 357.197 269.68C352.717 273.88 349.637 278.64 347.397 284.52C346.277 287.32 343.197 292.36 342.637 296.56C343.197 290.4 347.397 282.28 349.357 278.64C352.157 272.76 355.237 266.04 358.877 260.44C365.597 250.36 380.157 241.12 375.677 227.12C371.757 213.96 361.397 213.68 353.277 221.24C349.357 224.88 316.037 267.44 316.877 268C316.877 268 319.677 264.64 323.317 259.88L306.797 283.96C306.517 283.96 309.597 279.2 309.317 278.92C309.037 278.64 307.077 280.6 306.797 281.72C307.357 275.84 309.317 269.96 309.877 264.08C310.157 261.84 309.877 260.16 310.437 257.92C311.557 254.28 312.677 250.36 314.357 247.28C315.477 245.04 317.717 243.08 318.277 240.84C319.397 237.2 319.117 235.8 321.637 232.72C323.877 229.92 327.237 227.12 329.197 224.6C333.957 217.6 325.837 212.84 321.357 212C317.717 211.44 314.077 211.16 310.717 213.12C307.077 215.36 307.917 217.32 307.077 220.4C306.237 224.32 303.437 228.8 302.037 232.44C299.797 238.32 297.837 244.2 295.877 250.08C293.637 255.96 291.397 261.56 289.717 267.44C288.317 272.2 288.597 276.68 288.037 281.16C287.477 286.2 286.637 289.56 289.157 294.04C291.957 298.8 299.517 306.08 304.557 299.92L305.677 302.16C310.437 291.8 317.717 282.56 323.597 272.48C326.117 268 330.597 264.92 334.237 260.16C339.277 253.44 343.757 246.72 349.357 240.28C348.517 241.68 344.877 248.12 345.157 248.4C345.717 248.12 345.997 247.56 346.557 247L342.637 254.84C342.357 254.56 343.757 252.6 343.197 252.6C341.237 252.04 335.357 267.72 334.797 269.12C332.837 275.28 332.557 280.88 331.997 287.32C331.717 290.4 331.157 293.48 331.157 296.56C331.157 299.64 331.437 302.72 332.837 305.8C333.677 307.48 334.797 309.72 336.197 311.12C336.477 311.12 339.557 313.92 338.157 311.68L339.837 313.36L338.997 312.8C338.717 314.2 349.077 319.8 350.757 320.36C358.597 322.88 366.997 313.92 372.037 308.6C378.757 301.32 384.357 292.92 390.517 285.08C393.877 280.6 404.517 271.08 403.397 264.36ZM496.586 185.4C496.306 181.48 492.106 184.56 489.866 184.56C478.666 185.12 467.466 185.12 456.546 185.68C456.546 185.4 457.106 184.28 457.946 182.6C456.826 184.56 455.986 185.68 455.146 185.68C463.546 168.6 472.506 151.52 483.146 135.84C482.866 136.4 478.666 143.4 478.946 143.4C479.786 143.68 490.146 129.4 490.426 127.44C490.426 126.32 487.906 129.12 487.906 128.84C489.586 127.16 492.386 125.76 493.226 123.52C495.186 117.92 489.306 115.4 485.106 114.56C476.426 112.88 466.626 114 461.026 121.28C455.706 127.72 451.786 135.28 448.426 142.84C446.746 146.2 444.506 147.04 442.266 150.12C438.906 154.88 436.666 160.48 434.146 165.8C431.906 170.56 429.666 175.6 427.706 180.64C426.586 183.16 426.586 185.12 424.066 185.96C421.546 187.08 416.786 186.24 413.986 186.52C403.066 187.92 392.426 187.36 381.506 188.48C375.906 188.76 370.306 188.76 364.986 190.72C363.866 191 357.706 192.4 357.146 193.24C355.466 196.32 362.186 196.6 363.586 196.88C374.226 198.28 387.666 199.4 398.306 197.44C405.586 196.04 413.146 196.6 420.986 196.04C417.066 204.44 413.986 213.4 410.906 222.36L407.546 232.16C406.426 235.24 402.786 241.12 402.786 244.48C402.786 245.04 403.626 243.64 404.186 242.24C402.786 246.44 401.106 250.64 399.986 254.84C399.986 254.56 400.826 251.2 400.546 251.2C399.146 251.2 393.546 268.28 392.986 269.68C390.186 278.08 387.106 286.48 385.706 295.44C384.026 304.4 381.786 313.08 379.826 321.76C378.706 326.24 377.586 330.44 377.026 334.92C376.466 337.16 375.906 339.68 375.906 341.92C375.906 342.48 375.906 346.12 376.466 345L375.906 350.6V346.4C374.226 348.36 375.906 357.32 376.186 359C377.306 364.6 380.106 369.64 385.146 373C389.626 376.36 396.626 379.44 401.946 376.92C408.946 373.56 414.826 365.72 419.306 360.12C429.106 348.64 438.066 336.6 447.026 324.56C455.146 313.36 463.546 302.44 470.546 290.68C474.466 283.96 482.026 277.8 484.546 270.24C485.946 266.6 485.106 262.12 480.626 262.96C476.986 263.8 471.946 273.6 469.706 276.4C459.626 289 450.106 301.88 440.026 314.48L423.786 334.36C421.266 337.16 418.746 340.24 415.946 343.04C414.826 344.44 407.826 350.04 408.106 351.72C408.106 352.28 411.186 349.76 412.306 348.92C410.906 350.6 409.226 352 407.826 353.4C408.106 353.12 402.226 356.48 401.386 355.92C396.066 353.68 400.826 337.44 401.666 333.52C406.706 310.84 414.266 287.88 421.826 266.04C426.306 254 430.786 242.52 435.826 230.76C438.346 224.88 440.866 218.72 443.666 212.84L447.586 202.2L444.506 208.36C446.466 203.32 449.266 195.76 450.946 195.48L450.106 197.16C450.666 196.32 451.226 195.76 451.786 195.48C454.866 193.52 462.706 195.48 466.346 195.48C468.866 195.48 471.946 195.76 474.466 194.92C476.146 194.36 475.586 193.52 477.546 192.96C480.906 192.4 485.106 194.64 488.746 193.52C492.106 192.68 496.866 189.6 496.586 185.68V185.4ZM443.386 201.64C430.786 228.24 421.266 256.8 411.186 284.52C406.426 297.12 401.946 310.28 398.866 323.44L397.466 328.76C399.426 318.68 401.666 308.88 404.466 299.08C410.626 277.52 418.466 256.24 427.706 235.8C443.386 200.8 457.386 163.28 479.786 131.64C464.666 153.2 454.586 177.84 443.386 201.64ZM461.866 173.92L468.586 161.04C467.186 161.32 464.666 167.48 461.866 173.92ZM433.026 234.96C431.066 240.28 428.826 245.32 426.586 250.36C428.826 245.04 430.786 239.44 433.306 233.84C433.026 234.4 433.026 234.68 433.026 234.96ZM458.226 182.04L461.026 175.88C460.186 178.12 459.066 180.36 458.226 182.04ZM397.186 358.44C396.906 358.44 396.626 358.16 396.346 357.88L397.186 358.44ZM542.126 262.12C541.566 258.48 537.646 259.6 535.686 261C533.166 262.68 519.166 281.16 520.286 282.56C521.126 282.56 521.686 282.56 522.246 282C518.326 286.76 511.046 292.08 505.726 296.28C502.646 298.8 495.086 305.8 490.606 303.56C481.086 298.8 500.406 265.2 499.566 264.92C498.726 264.64 491.726 280.32 490.326 283.96C493.686 274.16 498.166 264.36 503.486 255.68C503.206 256.52 502.366 257.92 502.926 257.92C503.486 258.2 507.686 252.32 506.846 251.76C506.566 251.76 506.006 251.76 505.726 252.04C506.566 251.2 507.966 250.92 507.966 249.24C507.966 246.44 501.526 243.64 499.286 242.8C493.966 240.56 488.646 240 484.446 242.8C478.846 246.16 477.726 252.88 475.486 258.76C474.926 260.44 469.606 280.32 470.726 280.6C471.286 280.32 471.286 280.04 471.566 279.48L470.726 284.52C470.446 284.52 471.006 283.12 470.446 283.12C468.206 283.12 468.766 293.2 469.046 294.6C470.166 299.64 474.086 303.28 477.166 307.48C478.846 310 480.526 312.52 483.046 314.2C486.406 316.72 484.166 314.2 486.406 315.32H485.846C485.566 317 496.206 319.8 498.446 319.52C508.246 317.28 515.246 305.24 520.846 297.68C526.166 290.96 530.646 284.24 535.406 277.24C538.206 273.6 543.246 267.44 542.126 262.12ZM493.126 226.84C493.686 227.68 492.846 228.8 494.806 229.92C496.766 230.76 497.886 229.64 499.566 229.08C502.926 227.68 505.446 224.04 507.966 221.8C508.806 221.24 507.126 221.52 507.126 221.52C510.766 218.16 507.686 222.08 511.046 220.12C514.406 217.88 514.966 214.24 517.766 211.16C514.406 212.56 511.886 214.52 509.646 217.32C506.846 220.96 504.886 222.64 501.806 224.6C505.166 222.08 506.846 219.56 509.646 215.08C510.486 214.24 511.326 213.68 512.446 213.12C511.606 212.28 511.606 211.44 512.726 210.6C513.566 209.2 515.246 208.64 516.086 207.24C517.486 205.28 517.206 202.76 518.886 200.8C520.286 199.68 522.246 198.84 523.366 197.72C525.886 195.48 528.686 191.28 527.566 187.64C526.446 184.28 523.646 180.08 520.566 178.12C516.926 176.16 511.886 175.32 507.966 177C507.126 177.28 503.766 178.12 504.886 179.24C505.166 179.8 505.446 179.8 506.006 179.8C503.486 181.76 499.286 185.12 505.166 187.36C504.606 187.92 505.166 190.44 505.166 190.72C504.886 192.68 500.966 203.04 498.446 208.08L501.806 203.04C499.846 207.24 497.606 211.16 495.086 214.52C496.766 210.88 493.406 215.08 493.406 215.92C490.326 214.52 491.166 223.2 491.446 224.04C491.446 224.32 493.126 226.84 493.126 226.84ZM487.806 293.48V293.76L487.246 295.44L487.806 293.2C488.086 292.92 488.086 292.92 487.806 293.48ZM497.046 210.32C497.046 210.32 497.606 209.76 498.166 208.64L497.046 210.32ZM494.246 215.64C494.246 215.92 494.246 215.92 493.966 216.2C493.966 216.2 493.966 215.92 493.686 215.92C493.966 215.92 493.966 215.92 494.246 215.64ZM658.173 262.4C657.893 260.72 657.053 260.72 655.933 260.44C653.973 260.16 651.173 261.84 649.773 262.4C649.493 262.68 641.933 265.76 645.573 266.32C644.453 266.88 641.653 266.32 639.693 266.88C636.893 267.44 636.053 268.28 633.813 269.68C632.693 270.52 621.773 275.84 619.533 276.68C620.093 276.68 622.333 276.4 623.733 276.12L616.453 278.92C617.573 278.08 617.293 277.52 616.173 277.8L619.813 271.64C618.973 273.6 617.013 276.68 617.293 276.96C618.413 277.24 626.813 264.08 626.813 264.08L625.693 264.64C627.373 262.96 628.773 261.84 627.933 258.76C626.533 253.72 617.853 249.8 613.373 249.8C609.453 249.8 607.493 251.76 605.533 254.56C601.613 259.6 599.933 266.6 596.013 271.64C594.613 273.32 592.093 275 590.693 276.68C585.933 282.28 580.893 287.6 575.853 293.2C574.733 294.32 565.493 305.24 565.493 305.24C566.333 305.24 566.893 304.68 567.453 304.4C563.533 308.04 552.053 318.12 547.293 316.44H547.013C542.533 315.04 545.613 303.56 546.453 300.48C548.973 287.88 555.693 276.12 563.533 265.48C564.933 263.52 587.053 237.76 588.453 239.16C587.053 237.48 567.173 259.32 565.213 261.56C573.613 250.64 587.053 233.28 602.453 232.72C602.733 232.72 598.533 233.28 597.973 233.84C599.093 233.28 608.053 234.68 608.333 234.4L607.773 233.56C609.453 234.4 610.013 236.36 612.813 235.24C617.293 233.56 616.733 226.28 615.053 222.92C610.853 214.52 600.493 214.52 593.493 214.52C585.373 214.52 579.773 217.88 573.053 222.92C570.813 224.6 545.333 247.84 547.013 248.96C547.293 248.96 547.853 248.96 548.133 248.68L543.933 254C543.653 253.72 545.053 252.32 544.773 252.04C543.373 251.48 535.533 261.84 534.973 262.4C531.613 267.16 529.933 271.64 527.973 277.24C526.293 281.16 524.333 284.8 523.213 289C522.653 291.24 521.812 293.48 521.812 296C521.812 296.28 522.373 300.48 522.933 300.2V302.44C522.653 301.6 522.373 300.48 522.373 300.48C521.812 300.76 523.773 309.44 523.773 309.44C524.333 314.2 525.453 317.84 529.093 321.48C533.293 325.68 539.733 328.48 545.893 327.92C559.053 326.52 573.613 309.44 580.613 299.36C578.653 304.4 558.772 357.88 560.733 358.44C559.893 361.24 559.893 364.04 559.333 366.84C559.053 366.56 559.893 364.04 559.333 364.04C556.533 363.76 554.573 386.44 554.573 388.96C554.293 397.92 557.093 408.84 563.813 415C566.893 418.08 571.653 420.32 576.413 420.04C577.533 420.04 578.653 419.76 579.773 419.2C581.733 418.64 583.413 417.52 584.533 415.84C585.093 415.28 587.333 411.36 586.213 411.64C587.333 410.52 588.173 409.4 589.013 408C589.013 408.28 587.333 411.36 587.333 411.36C589.013 411.36 592.653 401 593.213 399.6C596.573 394 599.373 388.4 601.613 381.96C606.373 366.84 608.333 350.88 610.573 335.2C611.693 327.64 612.813 320.08 613.653 312.24C614.213 308.32 614.493 304.12 614.773 299.92C615.053 297.12 614.213 293.2 615.053 290.4C615.613 287.6 621.213 284.24 625.133 283.12C625.693 282.84 624.293 282.56 624.293 282.56C626.533 281.44 628.213 282.84 631.853 281.16C633.813 280.04 636.613 277.24 637.453 276.96C637.173 276.96 636.893 277.24 637.173 277.52C639.133 275.84 639.133 277.52 641.933 276.96C645.293 276.12 649.213 272.48 651.733 269.96L653.973 266.88C655.373 265.48 658.453 264.92 658.173 262.4ZM605.253 307.2C603.573 317.84 602.173 328.48 600.213 339.12L597.693 352.84C597.413 355.08 593.772 364.88 595.453 366.56C595.732 366.84 596.013 365.72 596.293 364.6C594.893 370.48 592.373 376.64 590.693 382.24C587.893 389.52 585.373 398.48 579.773 404.08C573.613 409.96 572.773 402.68 572.773 396.52C573.053 379.72 578.933 362.64 584.813 346.96C590.973 329.88 598.253 313.08 606.653 296.84L605.253 306.92V307.2ZM576.693 359.56C580.333 348.92 585.373 338.84 589.573 329.04C585.653 339.4 582.013 349.76 578.093 360.68C576.133 365.44 562.133 406.6 573.053 408.56C560.453 407.72 574.453 365.16 576.693 359.56ZM596.573 313.36C596.573 313.64 596.853 313.64 596.853 313.92C599.933 307.2 603.293 300.48 606.933 293.76V295.44C600.493 307.76 594.333 320.36 589.013 333.24L596.573 314.76C596.573 315.04 596.013 315.32 595.732 315.6C594.893 315.32 595.173 314.48 596.573 313.36ZM584.533 344.44C584.533 344.72 584.253 344.72 584.253 344.72L584.533 344.16V344.44ZM596.853 314.2C596.853 314.48 596.853 314.48 596.573 314.76L596.853 314.2ZM624.853 265.48C624.853 265.2 625.133 265.2 625.133 264.92C625.133 265.2 624.853 265.48 624.853 265.48ZM770.19 262.68C769.35 257.36 756.47 272.2 755.91 272.76C747.79 281.44 739.95 290.96 730.43 298.52C725.95 301.88 723.99 303.84 724.27 297.12C724.55 291.24 726.79 285.08 728.47 279.76C729.31 276.96 734.91 266.32 733.23 264.36C732.95 264.08 732.39 264.92 731.83 265.48C735.75 257.64 745.27 244.2 732.67 240.56C718.39 236.64 711.11 252.04 704.95 261.28C699.07 269.68 693.47 277.8 686.75 285.36C681.71 291.24 673.87 302.44 665.75 304.68C658.19 307.2 663.23 294.88 664.35 290.68C665.19 288.44 675.27 262.4 675.83 262.68C675.27 262.68 674.71 262.96 674.15 263.8C677.23 257.08 680.59 250.36 684.23 243.92C683.39 245.6 682.55 248.4 682.55 248.4C683.95 248.68 690.67 234.96 690.11 234.96C689.55 235.24 688.99 235.8 688.43 236.64C690.67 232.72 693.47 230.76 688.43 226.84C683.39 222.92 674.43 222.08 669.39 226.56C663.23 231.6 659.31 240.56 656.23 247.56C654.27 251.48 650.91 253.72 648.95 258.2C645.03 266.88 642.79 275.56 640.55 284.52C638.31 293.2 636.91 302.16 638.31 311.12C639.15 315.04 640.55 319.52 643.63 322.32C644.47 322.88 652.59 325.96 652.03 324C651.47 324 650.91 324 650.63 323.72C653.71 323.72 656.79 322.32 659.59 320.64C659.87 320.92 657.35 322.04 657.35 322.32C660.15 325.96 681.43 304.4 683.39 301.88C690.39 292.92 697.39 284.24 704.67 275.56C701.03 285.36 694.87 298.8 700.75 309.44C704.11 315.04 710.55 318.12 716.71 317.56C729.87 316.72 741.63 302.44 749.75 293.76C755.07 287.88 760.39 281.72 764.31 275C765.99 272.2 770.47 266.04 770.19 262.68ZM727.63 268.28C727.07 269.96 726.79 272.2 725.95 273.6C725.95 273.88 725.67 274.16 725.39 274.44C725.67 274.16 725.67 273.88 725.67 273.6C723.43 266.6 731.83 257.64 734.63 250.64C732.39 256.8 729.59 262.4 727.63 268.28ZM660.99 304.4C659.31 296.28 665.19 285.08 668.27 277.52C664.35 288.44 660.43 301.88 660.99 304.4ZM704.67 276.96C704.67 275.84 704.95 275 705.79 274.44C705.23 275.28 704.95 276.12 704.67 276.96ZM892.379 263.52C892.099 257.36 887.059 262.68 885.379 264.92C881.739 270.24 878.379 275.84 875.019 281.16C867.459 292.64 859.899 304.12 851.219 315.04C822.379 350.6 842.539 287.32 840.299 287.88C839.179 288.16 838.339 292.36 838.059 293.2C840.299 283.12 844.499 271.08 849.819 261.28C852.899 255.12 856.539 250.08 850.939 243.36C840.579 230.76 828.539 242.24 821.819 250.92C819.019 240.28 813.419 224.6 799.699 224.6C793.539 224.6 789.899 227.68 785.699 231.32C783.179 233 781.219 233.28 778.979 235.24C775.339 237.76 772.819 241.68 770.299 245.04C760.779 259.04 754.059 276.68 750.979 292.92C749.579 300.76 749.019 309.44 751.259 317.28C752.659 321.76 757.699 331.84 764.139 331C764.419 331 763.859 330.72 763.019 330.16C766.939 331.28 771.419 330.72 774.779 328.48C775.059 329.04 771.699 330.44 771.699 330.44C774.779 335.2 797.739 307.48 799.419 304.96C803.059 299.92 805.579 294.6 808.939 289.28C811.459 285.36 815.379 280.32 818.179 276.12C817.899 278.08 817.899 280.6 817.899 280.6C812.859 296.56 808.099 313.92 814.819 330.44C817.899 338.84 825.459 346.68 834.979 345C843.379 343.6 850.379 335.48 855.419 329.04C861.579 321.76 866.899 313.64 872.219 305.24C876.699 297.68 880.899 290.12 884.539 281.72C886.779 276.4 892.939 269.96 892.379 263.52ZM812.019 265.48C810.619 267.44 809.219 269.4 808.099 271.36L800.819 281.72C796.059 288.72 791.019 295.44 785.699 301.88C784.299 303.84 777.579 312.52 774.779 311.68C770.579 310.28 775.059 295.72 775.619 293.48C776.459 289.56 791.299 246.44 795.219 245.6C790.179 245.32 773.939 296 773.099 300.2C775.339 286.48 780.379 273.04 785.979 260.44C789.059 254 796.059 236.92 805.299 236.92C810.339 236.92 811.459 247.28 812.299 250.64C812.019 250.08 809.499 241.96 809.219 242.24C807.819 243.36 813.419 258.76 813.419 261C813.419 263.24 813.419 263.24 812.019 265.48ZM818.459 279.2C818.459 279.2 819.299 275.28 819.579 274.44L820.979 272.48L818.459 279.2ZM814.259 261.84V259.04C815.099 260.16 815.099 261 814.259 261.84Z" fill="white"/>
</svg>
